Coordinates

Units are S.I. units (second, meters, Newtons, ...)
If the header above contains a line with 'inDegrees', this indicates whether rotational values are in degrees (yes) or radians (no).

inDegrees=no
nColumns=21
nRows=17
DataType=double
version=3
OpenSimVersion=4.6-2026-03-31-d6972f9e6
endheader
time	/jointset/ground_pelvis/pelvis_tilt/value	/jointset/ground_pelvis/pelvis_list/value	/jointset/ground_pelvis/pelvis_rotation/value	/jointset/ground_pelvis/pelvis_tx/value	/jointset/ground_pelvis/pelvis_ty/value	/jointset/ground_pelvis/pelvis_tz/value	/jointset/hip_r/hip_flexion_r/value	/jointset/hip_r/hip_adduction_r/value	/jointset/hip_r/hip_rotation_r/value	/jointset/walker_knee_r/knee_angle_r/value	/jointset/patellofemoral_r/knee_angle_r_beta/value	/jointset/ankle_r/ankle_angle_r/value	/jointset/subtalar_r/subtalar_angle_r/value	/jointset/hip_l/hip_flexion_l/value	/jointset/hip_l/hip_adduction_l/value	/jointset/hip_l/hip_rotation_l/value	/jointset/walker_knee_l/knee_angle_l/value	/jointset/patellofemoral_l/knee_angle_l_beta/value	/jointset/ankle_l/ankle_angle_l/value	/jointset/subtalar_l/subtalar_angle_l/value
139.996	-0.1428432193357595	-0.01244505155632395	-0.1054000567113585	0.6603265800000416	0.9705453800000602	-0.2007542700000115	0.615106280069982	0.03427114224969654	0.0575538641419003	0.7021580490202888	0.7021580500000475	0.195244785655573	0.01114377106701661	-0.1293794749455833	-0.0752572689759065	-0.202554797205454	1.136336411046446	1.13633641000009	-0.4195294223113467	-0.5641209369116282
140	-0.145626579668533	-0.01798633211751972	-0.1070112168299075	0.6594116987101333	0.9677091221607464	-0.2007580666856126	0.6161158686782249	0.0400087013701771	0.05489049483393425	0.7239232878445145	0.7239232886391092	0.2127588825844293	0.007354681055938125	-0.1103314057967107	-0.08370493680170532	-0.1995528907661059	1.171297855997439	1.171297854948862	-0.4058105723234077	-0.5550354578586979
140.004	-0.1483782317948146	-0.02345577933187705	-0.1085258057797771	0.6584970237939232	0.9649054693919826	-0.2007654431810612	0.6169387070127693	0.04564795558994674	0.05229307140428124	0.7453870064489461	0.7453870070555966	0.2301600741286645	0.003596457598198323	-0.09124472648893397	-0.09203503589112945	-0.1964058137932856	1.206011307255804	1.20601130620613	-0.3921064341140118	-0.5457734910906983
140.008	-0.1510674258592032	-0.02878235387208363	-0.1098498765270166	0.6575826955841433	0.9621663845017969	-0.2007798829063364	0.6173930249785291	0.05109193794140041	0.0498237904355039	0.7662557973247411	0.7662557977383048	0.2473404317231802	-9.961446266908265e-05	-0.07208088546720347	-0.1001310811831037	-0.1929739258087054	1.240234278348389	1.240234277299848	-0.3784317690443916	-0.5361674018670441
140.012	-0.1536653762810856	-0.03389666545406013	-0.1108946585373904	0.6566687310534154	0.9595225457017772	-0.2008046738915457	0.6173068863673404	0.05624645470915488	0.04753766119344838	0.7862520469832307	0.7862520471970187	0.2642013507912076	-0.003701592598428839	-0.05280153669190016	-0.1078789014169215	-0.1891284525362261	1.273734926987721	1.273734925943556	-0.3648014234026435	-0.5260665298008977
140.016	-0.1561463075487557	-0.03873194813880869	-0.1115789542888495	0.6557549836825232	0.9570027162371095	-0.2008428075395263	0.6165227360386921	0.06102168767975019	0.04547962415755532	0.8051207930909149	0.80512079309782	0.2806567749473586	-0.007176959388074822	-0.03336887681544567	-0.1151681304720967	-0.1847564238262934	1.306296501581683	1.306296500545963	-0.3512303999689904	-0.5153440862104657
140.02	-0.1584884876110369	-0.04322518978846733	-0.1118312904695257	0.6548411272011732	0.9546331502115458	-0.2008968785688222	0.614901434967874	0.06533398163063552	0.04368238933786719	0.8226354417479999	0.8226354415417777	0.2966350160000104	-0.01049310868775481	-0.01374624769957376	-0.1218940084155938	-0.1797650027093662	1.337720870806405	1.337720869783823	-0.3377340515346674	-0.5039025973651027
140.024	-0.1606751834236063	-0.04731839787386977	-0.1115917455545273	0.6539266670179187	0.9524370646624365	-0.2009689910031639	0.6123256041930712	0.06910777244455606	0.04216509375738228	0.8386021344643866	0.8386021340409558	0.312079093792243	-0.01361825144349755	0.006100981525066813	-0.1279594525885472	-0.1740850110493519	1.367831014802245	1.367831013797967	-0.3243284461144065	-0.4916778186909489
140.028	-0.1626954631938826	-0.05095993855383527	-0.1108133936245936	0.6530109807672329	0.9504342095370608	-0.2010606756787431	0.6087021326413754	0.07227756116200371	0.04093282472669911	0.8528626620684091	0.8528626614271314	0.3269456763498782	-0.01652269839428871	0.02620428020738293	-0.1332772872467308	-0.167673502663483	1.396472441988019	1.396472441007534	-0.3110309123538087	-0.4786411642514868
140.032	-0.1645447582456344	-0.05410586673280399	-0.1094633220775508	0.6520933873872012	0.9486405652511898	-0.2011728247808407	0.6039637296130448	0.07478981692093586	0.03997700575846436	0.8652959142317035	0.8652959133765838	0.3412028171324687	-0.019180424916423	0.04659061133659643	-0.1377724856004098	-0.1605152971804935	1.42351356190172	1.423513560950491	-0.2978607774272385	-0.4648008355651986
140.036	-0.16622512278284	-0.05672115757839503	-0.1075231957724693	0.6511732410475526	0.9470681882227109	-0.2013056480622593	0.5980694683281061	0.07660468321264036	0.03927658419922089	0.8758179345147937	0.8758179334553858	0.3548267730241006	-0.02157079352690545	0.0672809586506522	-0.1413842693302905	-0.1526234392663756	1.448845112827515	1.448845111910433	-0.2848402802799068	-0.4502018639280759
140.04	-0.1677452381951232	-0.05878075660276044	-0.1049893360586582	0.6502500416238812	0.9457252051437829	-0.2014586549167763	0.5910044251895792	0.07769735768082833	0.03879985824303454	0.8843807270963706	0.884380725848111	0.3677982351595662	-0.02368029425035372	0.08828893747485606	-0.1440679380529848	-0.1440385570692417	1.47237883477681	1.472378833897763	-0.2719954662397385	-0.4349250503766628
140.044	-0.1691203318360026	-0.06027039174527999	-0.1018722697967441	0.6493235495829537	0.9446159355358372	-0.2016306664524926	0.5827786840087105	0.07805902923107143	0.0385066781272768	0.8909700160156137	0.8909700145994734	0.3800983105535692	-0.02550415334153881	0.1096198318769164	-0.1457963572918415	-0.1348270867873492	1.494045661851545	1.494045661013526	-0.2593566439532706	-0.4190844669587641
140.048	-0.1703721548652055	-0.06118710671240092	-0.09819573040423235	0.648393893478588	0.9437411164601104	-0.2018198596149635	0.5734259578072458	0.07769729062274397	0.03835077452835556	0.8956021754056849	0.8956021738472749	0.3917045683603218	-0.02704768618368222	0.1312703277571881	-0.1465610484780002	-0.1250783831795794	1.513793701442938	1.513793700648923	-0.2469579876128003	-0.4028231655680355
140.052	-0.1715289949284139	-0.06153946605554404	-0.09399516290648215	0.6474616625899986	0.943098213594103	-0.2020238409690233	0.5630018937337609	0.07663598332521299	0.03828209669299443	0.8983205383969326	0.8983205367253266	0.4025874250102865	-0.02832732610405902	0.153228948365	-0.1463727842541119	-0.114900854901262	1.531586167933918	1.531586167188387	-0.2348361670596911	-0.3863071253488949
140.056	-0.1726255513437716	-0.06134736950788826	-0.08931585860929797	0.6465279825314162	0.9426818136365726	-0.2022397424688857	0.5515819591430522	0.0749144652740296	0.03824916647939256	0.8991912743524114	0.8991912725988344	0.412707096014458	-0.02937130514311715	0.1754769568422789	-0.1452615633959173	-0.1044174028282672	1.547399325769065	1.547399325079752	-0.2230282983630624	-0.3697180166009179
140.06	-0.1737024579025699	-0.06064141137955077	-0.08421089977049083	0.6455945754340329	0.9424840947235035	-0.2024643273163818	0.5392587587993432	0.07258632201456988	0.03820151767226901	0.8982990135884563	0.8982990117847595	0.4220112962857461	-0.03021998282613317	0.1979893807735719	-0.1432758561685096	-0.09376055717394771	1.561220425505402	1.561220424884704	-0.2115697985209348	-0.3532457576165631
